<svg width="473" height="92" viewBox="0 0 473 92" fill="none" xmlns="http://www.w3.org/2000/svg">
<g id="logoshadow" clip-path="url(#clip0)">
<g id="logotype" filter="url(#filter0_d)">
<g id="g4313">
<path id="circle3420" d="M704.176 350.464C704.176 443.413 667.081 532.555 601.051 598.28C535.022 664.005 445.467 700.929 352.088 700.929C258.708 700.929 169.153 664.005 103.124 598.28C37.0949 532.555 0 443.413 0 350.464C0 257.515 37.0949 168.373 103.124 102.649C169.153 36.9238 258.708 0 352.088 0C445.467 0 535.022 36.9238 601.051 102.649C667.081 168.373 704.176 257.515 704.176 350.464Z" transform="translate(8 7) scale(0.0970141)" fill="#F55D53"/>
<g id="g4308">
<path id="polygon3422" d="M389.792 270.989L-4.23026e-06 2.10538e-06L21.0698 428.284L389.792 270.989Z" transform="translate(28.6021 19.3685) scale(0.0970141)" fill="white"/>
<path id="polygon3424" d="M200.718 351.568L220.124 432.699L271.135 321.213L-4.23026e-06 2.10538e-06L200.718 351.568Z" transform="translate(28.6021 19.3685) scale(0.0970141)" fill="#E6E9EE"/>
<path id="polygon3426" d="M60.4371 82.235L41.0307 1.6843e-05L-8.46052e-06 17.6612L60.4371 82.235Z" transform="translate(44.094 53.4757) scale(0.0970141)" fill="#ACB3BA"/>
</g>
</g>
<g id="flowRoot3472">
<path id="path4368" d="M3.43294e-05 16.9711C46.8031 5.65702 91.9345 -1.12343e-08 135.394 -1.12343e-08C170.162 -1.12343e-08 201.587 3.99319 229.669 11.9796C257.751 19.966 281.821 32.6111 301.88 49.9149C321.938 67.2188 337.316 89.5141 348.014 116.801C359.381 144.088 365.064 177.032 365.064 215.632C365.064 263.551 355.703 302.484 336.982 332.433C318.929 361.717 294.191 384.012 262.766 399.319C270.789 412.63 280.818 430.932 292.853 454.226C305.557 476.854 318.261 502.144 330.964 530.096C344.337 557.383 357.04 585.668 369.075 614.952C381.779 644.235 392.477 672.188 401.169 698.809H310.906C303.551 678.843 294.191 656.215 282.824 630.924C272.126 605.634 260.76 580.677 248.725 556.052C236.69 530.762 224.655 506.803 212.62 484.175C200.584 460.881 189.887 441.248 180.526 425.275C169.828 426.606 158.796 427.604 147.43 428.27C136.063 428.936 124.697 429.268 113.33 429.268H88.2572V698.809H3.43294e-05V16.9711ZM88.2572 355.394H126.368C172.503 355.394 207.939 345.078 232.678 324.447C257.417 303.15 269.786 266.878 269.786 215.632C269.786 189.677 266.443 168.047 259.757 150.743C253.739 132.774 244.713 118.798 232.678 108.815C221.312 98.166 207.271 90.5124 190.555 85.8537C174.508 81.1949 156.456 78.8656 136.397 78.8656C119.013 78.8656 102.967 79.8639 88.2572 81.8605V355.394Z" transform="translate(92.6338 7.89258) scale(0.0936526)" fill="#F5F5F5" stroke="#F5F5F5" stroke-width="15.598"/>
<path id="path4370" d="M-3.6008e-05 691.821V-3.93268e-07H311.909V76.869H90.2629V291.503H290.847V366.375H90.2629V614.952H327.955V691.821H-3.6008e-05Z" transform="translate(140.881 8.547) scale(0.0936526)" fill="#F5F5F5" stroke="#F5F5F5" stroke-width="15.598"/>
<path id="path4372" d="M256.748 595.984C243.376 548.066 229.669 502.144 215.628 458.219C201.587 414.294 187.881 373.031 174.508 334.43C161.805 295.164 149.435 259.558 137.4 227.612C125.365 195.666 114.333 167.714 104.304 143.755C101.629 181.69 99.2892 223.619 97.2833 269.541C95.9462 314.797 94.2747 361.384 92.2688 409.302C90.9316 457.221 89.5944 505.472 88.2572 554.056C87.5886 601.974 86.92 647.896 86.2513 691.821H4.60253e-06C2.0058 631.923 4.01158 571.692 6.01747 511.129C8.02335 449.9 10.3635 390.002 13.0378 331.435C16.3809 272.203 19.724 214.634 23.0671 158.729C27.0788 102.825 31.4249 49.9149 36.1053 -3.93268e-07H125.365C137.4 28.6179 151.107 62.8928 166.485 102.825C181.863 142.091 197.241 183.354 212.62 226.614C228.666 269.873 244.044 313.133 258.754 356.392C273.463 399.652 286.167 439.251 296.865 475.19C307.563 439.251 319.932 399.652 333.973 356.392C348.014 313.133 362.724 269.873 378.102 226.614C393.48 183.354 408.524 142.091 423.233 102.825C438.611 62.8928 452.318 28.6179 464.353 -3.93268e-07H553.613C558.293 49.9149 562.305 102.825 565.648 158.729C569.66 214.634 573.003 272.203 575.677 331.435C579.021 390.002 581.695 449.9 583.701 511.129C585.707 571.692 587.713 631.923 589.718 691.821H503.467C502.13 647.896 500.793 601.641 499.455 553.057C498.787 504.473 497.449 455.89 495.444 407.306C494.106 358.056 492.435 310.471 490.429 264.549C488.423 217.962 486.083 175.368 483.409 136.767C477.391 153.405 469.702 174.369 460.341 199.66C451.649 224.284 442.289 251.238 432.26 280.522C422.899 309.805 412.87 340.087 402.172 371.367C392.143 401.981 382.448 431.598 373.087 460.215C364.395 488.833 356.372 515.122 349.017 539.081C342.331 562.375 336.982 581.342 332.97 595.984H256.748Z" transform="translate(182.216 8.547) scale(0.0936526)" fill="#F5F5F5" stroke="#F5F5F5" stroke-width="15.598"/>
<path id="path4374" d="M-3.97983e-05 -3.93268e-07H90.2629V691.821H-3.97983e-05V-3.93268e-07Z" transform="translate(251.868 8.547) scale(0.0936526)" fill="#F5F5F5" stroke="#F5F5F5" stroke-width="15.598"/>
<path id="path4376" d="M340.994 691.821C324.947 652.554 306.56 610.293 285.833 565.037C265.774 519.115 244.379 473.193 221.646 427.272C199.582 380.684 176.849 334.763 153.447 289.507C130.046 243.585 106.978 200.991 84.2455 161.724V691.821H2.76152e-05V-3.93268e-07H75.2192C100.627 41.263 125.031 83.5243 148.432 126.784C172.503 170.043 195.236 212.97 216.631 255.564C238.027 297.493 258.085 339.089 276.806 380.352C296.196 420.949 313.915 459.55 329.961 496.154V-3.93268e-07H414.207V691.821H340.994Z" transform="translate(276.084 8.547) scale(0.0936526)" fill="#F5F5F5" stroke="#F5F5F5" stroke-width="15.598"/>
<path id="path4378" d="M439.28 353.398C439.28 417.954 432.26 472.861 418.219 518.117C404.846 562.707 385.122 598.979 359.046 626.931C333.639 654.884 302.548 675.182 265.775 687.827C229.669 700.473 189.218 706.795 144.421 706.795C98.9551 706.795 50.8148 700.805 5.68547e-05 688.826V17.9694C25.4074 12.6451 50.146 8.31915 74.2161 4.99149C98.2863 1.66383 121.354 1.44905e-07 143.418 1.44905e-07C188.884 1.44905e-07 229.669 6.32255 265.775 18.9677C302.548 31.6128 333.639 51.9115 359.046 79.8639C385.122 107.816 404.846 144.42 418.219 189.677C432.26 234.267 439.28 288.841 439.28 353.398ZM343 353.398C343 304.148 339.322 262.22 331.967 227.612C324.613 193.004 313.246 164.719 297.868 142.757C282.49 120.794 262.097 104.821 236.69 94.8383C211.951 84.8554 182.197 79.8639 147.429 79.8639C138.069 79.8639 128.709 80.1966 119.348 80.8622C109.987 81.5277 100.292 82.526 90.263 83.857V622.938C100.292 624.269 109.987 625.267 119.348 625.933C128.709 626.599 137.735 626.931 146.427 626.931C181.863 626.931 211.951 621.94 236.69 611.957C261.428 601.974 281.487 586.334 296.865 565.037C312.912 543.074 324.613 514.789 331.967 480.181C339.322 445.574 343 403.312 343 353.398Z" transform="translate(330.474 7.79907) scale(0.0936526)" fill="#F5F5F5" stroke="#F5F5F5" stroke-width="15.598"/>
<path id="path4380" d="M1.62442e-05 691.821V-3.93268e-07H311.909V76.869H90.263V291.503H290.847V366.375H90.263V614.952H327.956V691.821H1.62442e-05Z" transform="translate(384.686 8.547) scale(0.0936526)" fill="#F5F5F5" stroke="#F5F5F5" stroke-width="15.598"/>
<path id="path4382" d="M3.35714e-05 16.9711C46.8031 5.65702 91.9346 -1.12343e-08 135.394 -1.12343e-08C170.162 -1.12343e-08 201.587 3.99319 229.669 11.9796C257.751 19.966 281.821 32.6111 301.88 49.9149C321.938 67.2188 337.316 89.5141 348.014 116.801C359.381 144.088 365.064 177.032 365.064 215.632C365.064 263.551 355.703 302.484 336.982 332.433C318.929 361.717 294.191 384.012 262.766 399.319C270.789 412.63 280.818 430.932 292.853 454.226C305.557 476.854 318.261 502.144 330.964 530.096C344.337 557.383 357.04 585.668 369.076 614.952C381.779 644.235 392.477 672.188 401.169 698.809H310.906C303.551 678.843 294.191 656.215 282.824 630.924C272.126 605.634 260.76 580.677 248.725 556.052C236.69 530.762 224.654 506.803 212.619 484.175C200.584 460.881 189.887 441.248 180.526 425.275C169.828 426.606 158.796 427.604 147.429 428.27C136.063 428.936 124.697 429.268 113.33 429.268H88.2572V698.809H3.35714e-05V16.9711ZM88.2572 355.394H126.368C172.503 355.394 207.939 345.078 232.678 324.447C257.417 303.15 269.786 266.878 269.786 215.632C269.786 189.677 266.443 168.047 259.757 150.743C253.739 132.774 244.713 118.798 232.678 108.815C221.311 98.166 207.271 90.5124 190.555 85.8537C174.509 81.1949 156.456 78.8656 136.398 78.8656C119.014 78.8656 102.967 79.8639 88.2572 81.8605V355.394Z" transform="translate(427.43 7.89258) scale(0.0936526)" fill="#F5F5F5" stroke="#F5F5F5" stroke-width="15.598"/>
</g>
</g>
</g>
<defs>
<filter id="filter0_d" x="-2" y="7" width="478.007" height="88" filterUnits="userSpaceOnUse" color-interpolation-filters="sRGB">
<feFlood flood-opacity="0" result="BackgroundImageFix"/>
<feColorMatrix in="SourceAlpha" type="matrix" values="0 0 0 0 0 0 0 0 0 0 0 0 0 0 0 0 0 0 255 0"/>
<feOffset dy="10"/>
<feGaussianBlur stdDeviation="5"/>
<feColorMatrix type="matrix" values="0 0 0 0 0 0 0 0 0 0 0 0 0 0 0 0 0 0 0.3 0"/>
<feBlend mode="normal" in2="BackgroundImageFix" result="effect1_dropShadow"/>
<feBlend mode="normal" in="SourceGraphic" in2="effect1_dropShadow" result="shape"/>
</filter>
<clipPath id="clip0">
<rect width="473" height="92" fill="white"/>
</clipPath>
</defs>
</svg>
